
<svg viewBox="0 0 64 64" version="1.1" xmlns="http://www.w3.org/2000/svg" xmlns:xlink="http://www.w3.org/1999/xlink">
    <defs>
        <linearGradient x1="50%" y1="0%" x2="50%" y2="100%" id="linearGradient-1">
            <stop stop-color="#FFEAE3" offset="0%"></stop>
            <stop stop-color="#FFD0C2" offset="100%"></stop>
        </linearGradient>
    </defs>
    <g id="Page-1" stroke="none" stroke-width="1" fill="none" fill-rule="evenodd">
        <g id="Dribbble-showcase----earnings-report---designed-by-Tran-Mau-Tri-Tam" transform="translate(-268.000000, -462.000000)">
            <rect fill="none" x="0" y="0" ></rect>
            <g id="card-2" transform="translate(236.000000, 366.000000)">
                <g id="Group-13" transform="translate(32.000000, 96.000000)">
                    <g id="Earning-LI">
                        <g id="Money-Icon/Icon-1">
                            <path d="M25.638852,-1.03584031e-15 L38.361148,1.03584031e-15 C47.2763354,-6.01853049e-16 50.5091978,0.928256111 53.768457,2.67132704 C57.0277163,4.41439796 59.585602,6.97228371 61.328673,10.231543 C63.0717439,13.4908022 64,16.7236646 64,25.638852 L64,38.361148 C64,47.2763354 63.0717439,50.5091978 61.328673,53.768457 C59.585602,57.0277163 57.0277163,59.585602 53.768457,61.328673 C50.5091978,63.0717439 47.2763354,64 38.361148,64 L25.638852,64 C16.7236646,64 13.4908022,63.0717439 10.231543,61.328673 C6.97228371,59.585602 4.41439796,57.0277163 2.67132704,53.768457 C0.928256111,50.5091978 4.01235366e-16,47.2763354 -6.90560205e-16,38.361148 L6.90560205e-16,25.638852 C-4.01235366e-16,16.7236646 0.928256111,13.4908022 2.67132704,10.231543 C4.41439796,6.97228371 6.97228371,4.41439796 10.231543,2.67132704 C13.4908022,0.928256111 16.7236646,6.01853049e-16 25.638852,-1.03584031e-15 Z" id="Rectangle" fill="url(#linearGradient-1)" opacity="0.500186012"></path>
                            <g id="money-growth" stroke-width="1" transform="translate(21.000000, 21.000000)" stroke-linecap="square">
                                <line x1="11" y1="22" x2="11" y2="12" id="Path" stroke="#4BA0EA" stroke-width="2"></line>
                                <path d="M11,22 L11,22 C11,18.686 13.686,16 17,16 L19,16 L19,16 C19,19.314 16.314,22 13,22 L11,22 Z" id="Path" stroke="#4BA0EA" stroke-width="2"></path>
                                <rect id="Rectangle" stroke="#071354" stroke-width="2" x="0" y="0" width="22" height="12"></rect>
                                <circle id="Oval" stroke="#071354" stroke-width="2" cx="11" cy="6" r="2"></circle>
                            </g>
                        </g>
                    </g>
                </g>
            </g>
        </g>
    </g>
</svg>