
<svg viewBox="0 0 64 64" version="1.1" xmlns="http://www.w3.org/2000/svg" xmlns:xlink="http://www.w3.org/1999/xlink">
    <defs>
        <linearGradient x1="50%" y1="0%" x2="50%" y2="100%" id="linearGradient-1">
            <stop stop-color="#F4FAFF" offset="0%"></stop>
            <stop stop-color="#E5F3FF" offset="100%"></stop>
        </linearGradient>
    </defs>
    <g id="Symbols" stroke="none" stroke-width="1" fill="none" fill-rule="evenodd">
        <g id="Money-Icon/Icon-1-Copy">
            <path d="M25.638852,-1.03584031e-15 L38.361148,1.03584031e-15 C47.2763354,-6.01853049e-16 50.5091978,0.928256111 53.768457,2.67132704 C57.0277163,4.41439796 59.585602,6.97228371 61.328673,10.231543 C63.0717439,13.4908022 64,16.7236646 64,25.638852 L64,38.361148 C64,47.2763354 63.0717439,50.5091978 61.328673,53.768457 C59.585602,57.0277163 57.0277163,59.585602 53.768457,61.328673 C50.5091978,63.0717439 47.2763354,64 38.361148,64 L25.638852,64 C16.7236646,64 13.4908022,63.0717439 10.231543,61.328673 C6.97228371,59.585602 4.41439796,57.0277163 2.67132704,53.768457 C0.928256111,50.5091978 4.01235366e-16,47.2763354 -6.90560205e-16,38.361148 L6.90560205e-16,25.638852 C-4.01235366e-16,16.7236646 0.928256111,13.4908022 2.67132704,10.231543 C4.41439796,6.97228371 6.97228371,4.41439796 10.231543,2.67132704 C13.4908022,0.928256111 16.7236646,6.01853049e-16 25.638852,-1.03584031e-15 Z" id="Rectangle" fill="url(#linearGradient-1)"></path>
            <g id="handshake" transform="translate(21.000000, 22.000000)" stroke-width="2">
                <path d="M13,5 L10.828,7.172 C9.26600059,8.73352775 6.73399941,8.73352775 5.172,7.172 L5,7 L9.929,2.071 C12.6906369,-0.689909032 17.1673631,-0.689909032 19.929,2.071 L19.929,2.071 C22.2202883,4.3625083 22.6615678,7.91787763 21,10.7" id="Path" stroke="#071354" stroke-linecap="square"></path>
                <path d="M14.266,8.266 L17.879,11.879 C19.0501458,13.0504996 19.0501458,14.9495004 17.879,16.121 L16.243,17.757 C15.1177525,18.8824381 13.591475,19.5147187 12,19.5147187 C10.408525,19.5147187 8.88224747,18.8824381 7.757,17.757 L2.071,12.071 C-0.689909032,9.30936307 -0.689909032,4.83263693 2.071,2.071 L2.071,2.071 C3.3782398,0.760107368 5.1487698,0.016190218 7,-1.77635684e-15" id="Path" stroke="#4BA0EA" stroke-linecap="square"></path>
                <line x1="17.391" y1="16.609" x2="13.5" y2="12.719" id="Path" stroke="#4BA0EA"></line>
                <line x1="14.513" y1="18.965" x2="10.883" y2="15.335" id="Path" stroke="#4BA0EA"></line>
            </g>
        </g>
    </g>
</svg>