<?xml version="1.0" encoding="UTF-8"?>
<svg width="81px" height="16px" viewBox="0 0 81 16" version="1.1" xmlns="http://www.w3.org/2000/svg" xmlns:xlink="http://www.w3.org/1999/xlink">
    <!-- Generator: Sketch 59.1 (86144) - https://sketch.com -->
    <title>LOGO</title>
    <desc>Created with Sketch.</desc>
    <g id="Page-1" stroke="none" stroke-width="1" fill="none" fill-rule="evenodd">
        <g id="Home" transform="translate(-167.000000, -42.000000)" fill="#FFFFFF" fill-rule="nonzero">
            <g id="LOGO" transform="translate(167.000000, 42.000000)">
                <path d="M2.79501096,9.74479167 C2.79501096,9.303125 2.83434759,8.86854167 2.91321272,8.44125 C2.99188596,8.01375 3.12639803,7.63625 3.31655702,7.30854167 C3.50690789,6.98104167 3.75942982,6.71375 4.07450658,6.50729167 C4.38939145,6.300625 4.78294956,6.19729167 5.25537281,6.19729167 C5.72779605,6.19729167 6.12480811,6.300625 6.44621711,6.50729167 C6.7676261,6.71375 7.02360197,6.98104167 7.21376096,7.30854167 C7.40411184,7.63625 7.5386239,8.01375 7.61729715,8.44125 C7.69597039,8.86854167 7.7354989,9.303125 7.7354989,9.74479167 C7.7354989,10.1864583 7.69597039,10.6172917 7.61729715,11.0377083 C7.5386239,11.4579167 7.40411184,11.8354167 7.21376096,12.1702083 C7.02360197,12.505 6.7676261,12.7722917 6.44621711,12.9716667 C6.12480811,13.1710417 5.72779605,13.2708333 5.25537281,13.2708333 C4.78294956,13.2708333 4.38939145,13.1710417 4.07450658,12.9716667 C3.75942982,12.7722917 3.50690789,12.505 3.31655702,12.1702083 C3.12639803,11.8354167 2.99188596,11.4579167 2.91321272,11.0377083 C2.83434759,10.6172917 2.79501096,10.1864583 2.79501096,9.74479167 L2.79501096,9.74479167 Z M-1.15463195e-13,9.74479167 C-1.15463195e-13,10.628125 0.124725877,11.4258333 0.373985746,12.138125 C0.6234375,12.850625 0.977658991,13.4595833 1.43684211,13.9654167 C1.89621711,14.4710417 2.4473136,14.859375 3.09032346,15.13 C3.73333333,15.400625 4.45501645,15.5360417 5.25537281,15.5360417 C6.05572917,15.5360417 6.78086623,15.400625 7.43040022,15.13 C8.07993421,14.859375 8.63429276,14.4710417 9.09347588,13.9654167 C9.55285088,13.4595833 9.90707237,12.850625 10.1563322,12.138125 C10.405784,11.4258333 10.530318,10.628125 10.530318,9.74479167 C10.530318,8.86145833 10.405784,8.06020833 10.1563322,7.340625 C9.90707237,6.62125 9.55285088,6.00854167 9.09347588,5.50291667 C8.63429276,4.99708333 8.07993421,4.60541667 7.43040022,4.3275 C6.78086623,4.04979167 6.05572917,3.91083333 5.25537281,3.91083333 C4.45501645,3.91083333 3.73333333,4.04979167 3.09032346,4.3275 C2.4473136,4.60541667 1.89621711,4.99708333 1.43684211,5.50291667 C0.977658991,6.00854167 0.6234375,6.62125 0.373985746,7.340625 C0.124725877,8.06020833 -1.15463195e-13,8.86145833 -1.15463195e-13,9.74479167 L-1.15463195e-13,9.74479167 Z" id="Shape"></path>
                <path d="M13.7355811,4.44625 L13.7355811,5.74854167 L13.7355811,5.74854167 L13.7944901,5.74854167 C13.9650768,5.47791667 14.1489035,5.22854167 14.3455866,5.000625 C14.5424616,4.77270833 14.7623629,4.58041667 15.0050987,4.42375 C15.2478344,4.266875 15.5266447,4.14229167 15.8415296,4.04979167 C16.1564145,3.95708333 16.517352,3.91083333 16.9241502,3.91083333 C17.5408717,3.91083333 18.1149945,4.06041667 18.6463268,4.35958333 C19.1778509,4.65875 19.5550987,5.12166667 19.7780702,5.74854167 C20.15858,5.17875 20.5981908,4.73 21.0969024,4.40229167 C21.5954221,4.07458333 22.2188596,3.91083333 22.9666393,3.91083333 C24.0427357,3.91083333 24.8791667,4.195625 25.4763158,4.765625 C26.073273,5.33541667 26.3718476,6.29 26.3718476,7.62916667 L26.3718476,15.021875 C26.3718476,15.1523523 26.2660749,15.258125 26.1355976,15.258125 L24.3641831,15.258125 C24.2337058,15.258125 24.1279331,15.1523523 24.1279331,15.021875 L24.1279331,8.80458333 L24.1279331,8.80458333 C24.1279331,8.36291667 24.1148849,7.96041667 24.0885965,7.59708333 C24.0625,7.23375 23.9868969,6.92041667 23.8623629,6.656875 C23.7376371,6.39333333 23.5507401,6.19020833 23.3012884,6.04770833 C23.0520285,5.90541667 22.7108553,5.83416667 22.2777686,5.83416667 C21.5167489,5.83416667 20.9656524,6.090625 20.6244792,6.60333333 C20.2833059,7.11625 20.1127193,7.84291667 20.1127193,8.783125 L20.1127193,15.021875 C20.1127193,15.1523523 20.0069466,15.258125 19.8764693,15.258125 L18.1050548,15.258125 C17.9745776,15.258125 17.8688048,15.1523523 17.8688048,15.021875 L17.8688048,8.16333333 L17.8688048,8.16333333 C17.8688048,7.39416667 17.7410088,6.81354167 17.4850329,6.42166667 C17.2292489,6.03 16.7600877,5.83416667 16.0777412,5.83416667 C15.7891447,5.83416667 15.5101425,5.898125 15.2413103,6.02645833 C14.9722862,6.15458333 14.7360746,6.33979167 14.5326754,6.58208333 C14.3292763,6.82416667 14.1652138,7.12333333 14.0404879,7.47958333 C13.9159539,7.83583333 13.853591,8.24166667 13.853591,8.69770833 L13.853591,15.021875 C13.853591,15.1523523 13.7478183,15.258125 13.617341,15.258125 L11.6096765,15.258125 L11.6096765,15.258125 L11.6096765,4.21 L13.4993311,4.21 C13.6298084,4.21 13.7355811,4.31577273 13.7355811,4.44625 Z" id="Path"></path>
                <path d="M34.9424342,8.76166667 C34.9161458,8.37708333 34.8407346,8.00666667 34.7160088,7.650625 C34.5914748,7.294375 34.4208882,6.98458333 34.2042489,6.72104167 C33.9878015,6.45729167 33.7253015,6.24375 33.4169408,6.07979167 C33.10858,5.91604167 32.7641447,5.83416667 32.3836349,5.83416667 C31.9900768,5.83416667 31.6324013,5.90895833 31.3109923,6.05854167 C30.9893914,6.208125 30.7138432,6.41458333 30.4843476,6.678125 C30.2546601,6.94166667 30.0710252,7.25166667 29.9332511,7.60770833 C29.7952851,7.96395833 29.7198739,8.34854167 29.7068257,8.76166667 L34.9424342,8.76166667 Z M29.8741502,11.6039583 C29.985636,12.0029167 30.1529605,12.351875 30.375932,12.6510417 C30.5990954,12.9502083 30.8811678,13.1889583 31.222341,13.3670833 C31.5635143,13.545 31.9703125,13.6341667 32.4427357,13.6341667 C33.0987939,13.6341667 33.6270559,13.4810417 34.0271382,13.1745833 C34.2939876,12.9704167 34.5924982,12.5109722 34.92267,11.79625 L37.0485746,11.79625 C36.834174,12.5513889 36.6307749,13.085625 36.4383772,13.3989583 C36.1495888,13.8691667 35.8018914,14.2645833 35.3950932,14.585 C34.988295,14.905625 34.5323739,15.1479167 34.0271382,15.3116667 C33.5219024,15.4754167 32.9938322,15.5575 32.4427357,15.5575 C31.6423794,15.5575 30.9337445,15.415 30.317023,15.13 C29.7003015,14.845 29.1785636,14.44625 28.752193,13.9333333 C28.3258224,13.4204167 28.0042215,12.8077083 27.7877741,12.0954167 C27.5711349,11.383125 27.4629112,10.5995833 27.4629112,9.74479167 C27.4629112,8.96125 27.5778509,8.216875 27.8073465,7.51166667 C28.037034,6.80645833 28.365159,6.18666667 28.7915296,5.6525 C29.2180921,5.118125 29.733114,4.694375 30.3365954,4.38083333 C30.9402686,4.0675 31.6226151,3.91083333 32.3836349,3.91083333 C33.1841831,3.91083333 33.9026042,4.0925 34.538898,4.455625 C35.1753838,4.81895833 35.7034539,5.29979167 36.1234923,5.898125 C36.5433388,6.49645833 36.8484375,7.18395833 37.0385965,7.96041667 C37.1654971,8.47805556 37.2147478,9.27944444 37.1863487,10.3645833 L29.7068257,10.3645833 C29.7068257,10.791875 29.7626645,11.205 29.8741502,11.6039583 Z" id="Shape"></path>
                <path d="M38.4228618,15.258125 L39.8596656,15.258125 C39.9901428,15.258125 40.0959156,15.1523523 40.0959156,15.021875 L40.0959156,10.343125 L40.0959156,10.343125 C40.0959156,9.63083333 40.1613487,9.00041667 40.2925987,8.451875 C40.4238487,7.90333333 40.6337719,7.436875 40.9225603,7.05208333 C41.2111568,6.6675 41.5916667,6.37541667 42.0640899,6.17604167 C42.5365132,5.97645833 43.1073739,5.876875 43.7764803,5.876875 L43.7764803,3.95354167 C42.8711623,3.925 42.1231908,4.12458333 41.5327577,4.551875 C40.9421327,4.979375 40.4436129,5.64166667 40.0368147,6.539375 L39.9974781,6.539375 L39.9974781,4.44625 C39.9974781,4.31577273 39.8917053,4.21 39.7612281,4.21 L38.4228618,4.21 L38.4228618,4.21 L38.4228618,15.258125 Z" id="Path"></path>
                <path d="M44.9101425,7.60770833 L46.1503015,7.60770833 C46.176398,6.71020833 46.438898,6.05854167 46.9376096,5.6525 C47.4361294,5.24645833 48.0791393,5.04333333 48.8664474,5.04333333 C49.233909,5.04333333 49.5783443,5.07541667 49.8997533,5.13958333 C50.2213542,5.20375 50.5034265,5.32125 50.7461623,5.49208333 C50.988898,5.663125 51.1792489,5.89458333 51.317023,6.18666667 C51.4547971,6.47875 51.5236842,6.85270833 51.5236842,7.30854167 C51.5236842,7.60770833 51.4876096,7.85 51.4154605,8.03520833 C51.3431195,8.22041667 51.24142,8.36645833 51.1103618,8.47333333 C50.9791118,8.58020833 50.8150493,8.655 50.6181743,8.69770833 C50.4212993,8.74041667 50.1918037,8.77604167 49.9293037,8.80458333 C49.2600055,8.89 48.6006853,8.97895833 47.9511513,9.07166667 C47.3016173,9.16416667 46.7177083,9.32458333 46.1994243,9.5525 C45.6811404,9.78041667 45.2645559,10.1116667 44.9494792,10.54625 C44.6345943,10.980625 44.4772478,11.5825 44.4772478,12.351875 C44.4772478,12.9075 44.5657072,13.3883333 44.742818,13.794375 C44.9201206,14.2004167 45.1628564,14.5352083 45.4712171,14.79875 C45.7795779,15.0622917 46.1403235,15.2545833 46.5536458,15.3758333 C46.9669682,15.496875 47.409841,15.5575 47.8822643,15.5575 C48.3809759,15.5575 48.8106086,15.5075 49.1715461,15.4079167 C49.5322917,15.308125 49.8538925,15.165625 50.1359649,14.9804167 C50.4180373,14.7952083 50.6740132,14.56375 50.9037007,14.2858333 C51.1331963,14.008125 51.3596217,13.6910417 51.5825932,13.335 L51.6221217,13.335 C51.6221217,13.6197917 51.638432,13.8797917 51.6712445,14.115 C51.704057,14.35 51.7729441,14.5529167 51.8779057,14.7239583 C51.9828673,14.895 52.1304276,15.0266667 52.3207785,15.119375 C52.5111294,15.211875 52.7636513,15.258125 53.0785362,15.258125 C53.2491228,15.258125 53.390159,15.2510417 53.5018366,15.236875 C53.6133224,15.2227083 53.7413103,15.20125 53.8856086,15.1727083 L53.8856086,14.0402083 C53.7674068,14.0970833 53.6361568,14.125625 53.4918586,14.125625 C53.0063871,14.125625 52.7636513,13.855 52.7636513,13.3135417 L52.7636513,7.458125 C52.7636513,6.71729167 52.6521656,6.11541667 52.4290022,5.6525 C52.2060307,5.189375 51.9172423,4.82979167 51.5630208,4.57333333 C51.2086075,4.316875 50.8085252,4.14229167 50.3623904,4.04979167 C49.9162555,3.95708333 49.4701206,3.91083333 49.0239857,3.91083333 C48.4333607,3.91083333 47.8955044,3.98208333 47.409841,4.12458333 C46.9243695,4.266875 46.501261,4.48770833 46.1403235,4.786875 C45.7795779,5.08604167 45.4940515,5.47083333 45.2841283,5.94104167 C45.074205,6.41104167 44.9494792,6.96666667 44.9101425,7.60770833 L44.9101425,7.60770833 Z M51.5236842,9.231875 L51.5236842,10.9841667 C51.5236842,11.525625 51.4285088,12.01 51.2381579,12.4375 C51.0479989,12.8647917 50.792023,13.228125 50.470614,13.5272917 C50.1490132,13.8264583 49.7717654,14.054375 49.3388706,14.2110417 C48.905784,14.3679167 48.453125,14.44625 47.9807018,14.44625 C47.6921053,14.44625 47.409841,14.39625 47.1342928,14.2966667 C46.8587445,14.196875 46.6160088,14.0508333 46.4060855,13.8585417 C46.1961623,13.66625 46.0288377,13.438125 45.9041118,13.1745833 C45.7795779,12.9110417 45.7172149,12.6083333 45.7172149,12.2664583 C45.7172149,11.725 45.8647752,11.3083333 46.1600877,11.01625 C46.4552083,10.7241667 46.8324561,10.4997917 47.2918311,10.343125 C47.7510143,10.1864583 48.2595121,10.0689583 48.8173246,9.990625 C49.3749452,9.91208333 49.9162555,9.823125 50.4410636,9.72333333 C50.6116502,9.695 50.8085252,9.645 51.0314967,9.57375 C51.2546601,9.5025 51.4054825,9.38854167 51.4843476,9.231875 L51.5236842,9.231875 L51.5236842,9.231875 Z" id="Shape"></path>
                <path d="M54.9371053,1.10134124e-13 L55.3698849,1.10134124e-13 C55.4568697,1.10040887e-13 55.5273849,0.0705151519 55.5273849,0.1575 L55.5273849,9.92668372 C55.5273849,9.97017615 55.5626424,10.0054337 55.6061349,10.0054337 C55.6261058,10.0054337 55.6453308,9.99784608 55.6599185,9.9842066 L61.721535,4.31662091 C61.7507105,4.28934196 61.7891604,4.27416667 61.8291023,4.27416667 L62.4478031,4.27416667 C62.534788,4.27416667 62.6053031,4.34468182 62.6053031,4.43166667 C62.6053031,4.4755255 62.5870152,4.51739799 62.5548414,4.5472048 L58.4708466,8.33074947 C58.4421366,8.35734727 58.437316,8.40099287 58.4595292,8.43321516 L62.9942444,15.0112317 C63.043615,15.0828482 63.0255811,15.1809275 62.9539646,15.230298 C62.9276764,15.2484205 62.8965009,15.258125 62.8645714,15.258125 L62.2237119,15.258125 C62.1718834,15.258125 62.1233722,15.2326265 62.0939825,15.1899365 L57.8817946,9.07152789 C57.8571319,9.03570413 57.808098,9.02665629 57.7722742,9.05131898 C57.7692441,9.05340505 57.7663639,9.05570087 57.7636547,9.05818959 L55.5783344,11.0656961 C55.5458653,11.0955233 55.5273849,11.1375945 55.5273849,11.1816842 L55.5273849,15.100625 C55.5273849,15.1876098 55.4568697,15.258125 55.3698849,15.258125 L54.9371053,15.258125 C54.8501204,15.258125 54.7796053,15.1876098 54.7796053,15.100625 L54.7796053,0.1575 C54.7796053,0.0705151519 54.8501204,1.09872547e-13 54.9371053,1.10134124e-13 Z" id="Path"></path>
                <path d="M71.0334978,7.52229167 C71.0334978,6.29708333 70.7053728,5.40666667 70.0493147,4.85104167 C69.3932566,4.29541667 68.5009868,4.01770833 67.3725055,4.01770833 C66.7425439,4.01770833 66.2112116,4.103125 65.778125,4.27416667 C65.3450384,4.445 64.9908169,4.66583333 64.7152686,4.93645833 C64.4397204,5.20729167 64.2428454,5.50645833 64.1248355,5.83416667 C64.0066338,6.16166667 63.9475329,6.47520833 63.9475329,6.774375 C63.9475329,7.37270833 64.0459704,7.85 64.2428454,8.20625 C64.4397204,8.56229167 64.7480811,8.84020833 65.1679276,9.03958333 C65.456716,9.18208333 65.7846491,9.31020833 66.1521107,9.42416667 C66.5195724,9.538125 66.945943,9.659375 67.4314145,9.7875 C67.8645011,9.90145833 68.2908717,10.0154167 68.7109101,10.129375 C69.1307566,10.2433333 69.5014803,10.3966667 69.8228893,10.5889583 C70.1444901,10.78125 70.4067982,11.0270833 70.6101974,11.32625 C70.8135965,11.6254167 70.9152961,12.0170833 70.9152961,12.5014583 C70.9152961,12.9716667 70.8135965,13.370625 70.6101974,13.698125 C70.4067982,14.0258333 70.1477522,14.2929167 69.8326754,14.4995833 C69.5177906,14.70625 69.1668311,14.8558333 68.7797971,14.9483333 C68.3925713,15.0410417 68.0153235,15.0872917 67.6480537,15.0872917 C66.4539474,15.0872917 65.5386513,14.79875 64.9021656,14.221875 C64.2658717,13.6447917 63.9475329,12.7366667 63.9475329,11.4970833 L63.5539748,11.4970833 C63.5539748,12.8789583 63.8984101,13.890625 64.5872807,14.5316667 C65.2761513,15.1727083 66.296409,15.4933333 67.6480537,15.4933333 C68.0809485,15.4933333 68.5172971,15.4397917 68.9569079,15.333125 C69.3965186,15.22625 69.7900768,15.0516667 70.1377741,14.809375 C70.4856634,14.5672917 70.7677357,14.25375 70.9841831,13.8691667 C71.2008224,13.4845833 71.3090461,13.014375 71.3090461,12.45875 C71.3090461,11.9316667 71.2138706,11.5041667 71.0235197,11.1766667 C70.8333607,10.8489583 70.583909,10.578125 70.2755482,10.3645833 C69.9671875,10.1508333 69.6194901,9.98333333 69.2324561,9.86229167 C68.8454221,9.74125 68.4549342,9.62375 68.0613761,9.50979167 C67.5102796,9.35291667 67.0278783,9.21770833 66.6145559,9.10375 C66.2012336,8.98979167 65.8174616,8.854375 65.4632401,8.69770833 C65.1220669,8.54104167 64.8497807,8.31645833 64.6463816,8.02458333 C64.4429825,7.7325 64.3412829,7.31583333 64.3412829,6.774375 C64.3412829,6.67458333 64.3675713,6.49645833 64.4199561,6.24020833 C64.4725329,5.98375 64.5970669,5.72375 64.7939419,5.46020833 C64.9908169,5.19645833 65.2926535,4.96145833 65.6994518,4.755 C66.10625,4.54833333 66.6638706,4.445 67.3725055,4.445 C67.857977,4.445 68.3008498,4.50208333 68.700932,4.61604167 C69.1012061,4.73 69.4456414,4.91166667 69.7344298,5.16083333 C70.0230263,5.41020833 70.2461897,5.72729167 70.4035362,6.111875 C70.5610746,6.49645833 70.6397478,6.96666667 70.6397478,7.52229167 L71.0334978,7.52229167 Z" id="Path"></path>
                <path d="M80.0245066,4.27416667 L79.7337993,4.27416667 L79.7337993,10.4927083 C79.7337993,11.1054167 79.6979245,11.7209182 79.5403861,12.2765432 C79.3830396,12.8321682 79.1661836,13.3448998 78.8578229,13.7653164 C78.5494622,14.1855248 78.1278647,14.5356786 77.6684897,14.7850536 C77.2093066,15.0344286 76.656716,15.1340114 76.0532346,15.1340114 C75.620148,15.1340114 75.1934804,15.0617597 74.8064464,14.9263431 C74.4192205,14.7911347 74.062433,14.5586081 73.7673124,14.2665248 C73.4719999,13.9744414 73.2046752,13.5922466 73.0340885,13.1434966 C72.8635019,12.6947466 72.7717928,12.138125 72.7717928,11.4970833 L72.7706414,4.27416667 L72.4511513,4.27416667 L72.4511513,11.56125 C72.4511513,12.2022917 72.5398026,12.7685417 72.7169134,13.2602083 C72.8940241,13.7516667 73.143284,14.1647917 73.4648849,14.4995833 C73.7862939,14.834375 74.1668037,15.08375 74.6064145,15.2475 C75.0460252,15.4114583 75.5282346,15.4933333 76.0532346,15.4933333 C77.050466,15.4933333 77.8606086,15.2154167 78.4840461,14.6597917 C79.1072917,14.1041667 79.5108279,13.3989583 79.6944627,12.5441667 L79.7337993,12.5441667 L79.7337993,15.258125 L80.0262336,15.258125 L80.0245066,4.27416667 Z" id="Path"></path>
            </g>
        </g>
    </g>
</svg>